name processed_emg_signals
nRows=90
nColumns=7
 
endheader
time	LGLTMED	LRF	LADDLONG	LST	LTA	LGM
0.0	0.0056895019489792	0.0445229693559293	0.0038537439065526	0.0065201679907175	0.0638813119719918	0.0235319241103232
0.001	0.0061864793402178	0.0441059369058206	0.0052718432520407	0.0093209863975256	0.0685696745998742	0.0224557315491771
0.002	0.0067102775245094	0.0436079242767754	0.0067082734007802	0.0122214473029536	0.0733337203644126	0.0213087315395902
0.003	0.0072601773783824	0.0430259410910573	0.0081626732427629	0.015222042384207	0.0781723958757409	0.0200894325272439
0.004	0.0078353827046352	0.0423569861390073	0.009634684025248	0.018323188175441	0.0830846025497495	0.0187963697789856
0.005	0.0084350189381516	0.0415980504001545	0.0111239505717185	0.0215252244562945	0.0880691981605564	0.0174281074980063
0.006	0.0090581319397259	0.0407461201819986	0.0126301224724131	0.0248284126923669	0.0931249984557048	0.0159832409562129
0.007	0.0097036868825476	0.0397981803777409	0.0141528552397633	0.0282329345289291	0.0982507788297086	0.0144603986417464
0.008	0.0103705672359245	0.0387512178437745	0.0156918114221783	0.0317388903394338	0.1034452760517049	0.0128582444194757
0.009000000000000001	0.0110575738507322	0.0376022248971308	0.017246661670522	0.0353462978306427	0.1087071900429824	0.0111754797021601
0.01	0.011763424150913	0.0363482029325954	0.0188170857518748	0.0390550907065857	0.1140351856998629	0.0094108456298582
0.011	0.012486751435285	0.0349861661585874	0.0204027735056838	0.0428651173937573	0.119427894757472	0.0075631252550547
0.012	0.0132261042936235	0.0335131454503815	0.0220034257377638	0.0467761398301672	0.1248839176895781	0.0056311457307878
0.013000000000000001	0.0139799461408398	0.0319261923187374	0.0236187550482715	0.0507878323208027	0.1304018256395364	0.0036137804989208
0.014	0.014746654872844	0.0302223829913545	0.0252484865903789	0.0548997804621046	0.1359801623770815	0.0015099514754565
0.015	0.0155245226474716	0.0283988226042055	0.0268923587573111	0.0591114801379446	0.1416174462752733	0.0006813687703275
0.016	0.0163117557937323	0.0264526494991457	0.0285501237964433	0.0634223365897258	0.1473121723017043	0.002961154846352
0.017	0.0171064748523728	0.0243810396237169	0.0302215483498907	0.0678316635630713	0.153062814017687	0.0053303263813533
0.018000000000000002	0.0179067147505067	0.0221812110285032	0.0319064139217906	0.0723386825336965	0.158867825578839	0.0077897458852493
0.019	0.0187104251128134	0.0198504284571314	0.0336045172727888	0.0769425220148172	0.1647256437301551	0.0103402166299818
0.02	0.0195154707114978	0.0173860080235022	0.0353156707425927	0.081642216948425	0.170634689788341	0.0129824805545906
0.021	0.0203196320570492	0.0147853219706962	0.0370397025014304	0.086436708182496	0.176593371603993	0.0157172161984204
0.022	0.0211206061316552	0.0120458035057328	0.0387764567313862	0.0913248420362165	0.1826000854960091	0.0185450366663263
0.023	0.0219160072669486	0.0091649517040748	0.0405257937386715	0.096305369955239	0.1886532181508239	0.0214664876298683
0.024	0.0227033681677411	0.0061403364774989	0.0422875899976368	0.1013769482591214	0.1947511484790036	0.024482045368452
0.025	0.0234801410831798	0.002969603598712	0.0440617381277144	0.1065381379831635	0.200892249422043	0.027592114854361
0.026000000000000002	0.0242436991266421	0.0003495202245562	0.0458481468042108	0.1117874048169295	0.207074889702171	0.0307970278857528
0.027	0.0249913377455087	0.003819222233367	0.0476467406042721	0.1171231191415906	0.2132974355079433	0.034097041271717
0.028	0.0257202763418059	0.0074415984674269	0.0494574597893713	0.1225435561680966	0.219558252108337	0.0374923350735724
0.029	0.026427660044448	0.0112186485894131	0.0512802600259158	0.1280468961779914	0.2258557053880485	0.0409830109067149
0.03	0.0271105616336504	0.0151522706926749	0.053115112045719	0.1336312248685434	0.2321881632966893	0.0445690903073303
0.031	0.0277659836178702	0.0192442561019165	0.0549620012481996	0.1392945338038776	0.2385539972046978	0.0482505131683077
0.032	0.0283908604633557	0.0234962841766722	0.0568209272462321	0.1450347209739958	0.2449515831590246	0.0520271362486419
0.033	0.0289820609762371	0.0279099171280612	0.0586919033575689	0.1508495914635313	0.2513793030322703	0.0558987317605424
0.034	0.0295363908367716	0.0324865948594728	0.0605749560437124	0.1567368582324775	0.2578355455594451	0.0598649860383841
0.035	0.0300505952852056	0.0372276298423326	0.0624701242983883	0.1626941430110579	0.2643187072572178	0.0639254982935298
0.036000000000000004	0.0305213619583514	0.0421342020381131	0.0643774589876507	0.1687189773111052	0.270827193221005	0.068079779458929
0.037	0.0309453238757214	0.0472073538781425	0.0662970221438448	0.1748088035563709	0.2773594177956596	0.0723272511272661
0.038	0.0313190625738688	0.052447985312995	0.0682288862155509	0.1809609763341896	0.2839138051163344	0.0766672445862772
0.039	0.0316391113872531	0.0578568489434503	0.0701731332758054	0.1871727637711009	0.290488789517403	0.0810989999547205
0.04	0.0319019588738197	0.0634345452452665	0.0721298541908855	0.193441349034844	0.2970828158095154	0.0856216654223094
0.041	0.0321040523832049	0.0691815179000613	0.0740991477524991	0.19976383196529	0.3036943394269172	0.0902342965968446
0.042	0.0322418017652185	0.0750980492445671	0.0760811197764458	0.2061372308366917	0.310321826449301	0.0949358559616521
0.043000000000000003	0.0323115832159711	0.0811842558506549	0.0780758821710343	0.2125584842535734	0.3169637535038634	0.0997252124463087
0.044	0.0323097432587533	0.0874400842484069	0.0800835519790217	0.2190244531822909	0.323618607554376	0.1046011411134595
0.045	0.0322326028563761	0.0938653068046031	0.0821042503970931	0.2255319231197954	0.3302848855850736	0.1095623229643828
0.046	0.0320764616515794	0.1004595177691011	0.0841381017771476	0.2320776064008035	0.3369610941875008	0.1146073448656485
0.047	0.0318376023316257	0.1072221295018201	0.0861852326142613	0.2386581446440996	0.3436457490589715	0.1197346995990976
0.048	0.0315122951131438	0.1141523688934406	0.0882457705259976	0.2452701113384168	0.3503373744215571	0.1249427860371874
0.049	0.0310968023428862	0.1212492739931861	0.0903198432280726	0.251910014567945	0.3570345023714703	0.1302299094454977
0.05	0.0305873832098765	0.128511690857363	0.0924075775111353	0.2585742998772965	0.3637356721697273	0.1355942819140333
0.051000000000000004	0.0299802985641169	0.1359382706323978	0.0945090982232799	0.2652593532755024	0.3704394294858941	0.1410340229185742
0.052000000000000005	0.0292718158367452	0.1435274668861286	0.0966245272629118	0.2719615043784296	0.3771443256072089	0.1465471600129253
0.053	0.028458214056213	0.1512775332006813	0.0987539825861999	0.2786770296887318	0.3838489166249796	0.1521316296524893
0.054	0.0275357889548702	0.1591865210402067	0.1008975772333755	0.2854021560120287	0.3905517626095387	0.1577852781490717
0.055	0.0265008581600805	0.167252277906071	0.10305541837779	0.2921330640075933	0.3972514267843592	0.1635058627564235
0.056	0.0253497664637904	0.1754724457919771	0.1052276064016369	0.2988658918713354	0.4039464747095217	0.1692910528855616
0.057	0.0240788911642564	0.1838444599509942	0.1074142340019564	0.3055967391484872	0.4106354734846441	0.1751384314486936
0.058	0.022684647473374	0.1923655479860543	0.1096153853305354	0.312321670672893	0.4173169909812852	0.1810454963303377
0.059000000000000004	0.0211634939828769	0.2010327292750915	0.1118311351709944	0.3190367206295004	0.4239895951142639	0.1870096619841981
0.06	0.0195119381823657	0.2098428147414862	0.1140615481565051	0.325737896736087	0.4306518531605868	0.1930282611542906
0.061	0.0177265420219914	0.2187924069799422	0.1163066780312096	0.3324211845398256	0.4373023311334942	0.1990985467187995
0.062	0.0158039275122752	0.2278779007474719	0.1185665669587637	0.3390825518235225	0.4439395932179931	0.2052176936552317
0.063	0.0137407823534621	0.237095483828667	0.1208412448814746	0.3457179531157112	0.4505622012730287	0.2113828011255996
0.064	0.0115338655866124	0.246441138283857	0.1231307289335228	0.3523233342979654	0.4571687144043554	0.2175908946806742
0.065	0.0091800132585157	0.2559106420881855	0.1254350229120328	0.358894637301917	0.4637576886111281	0.2238389285828625
0.066	0.0066761440924927	0.2654995711689712	0.1277541168094022	0.3654278048878735	0.4703276765084885	0.2301237882479268
0.067	0.0040192651569314	0.2752033018480133	0.1300879864103667	0.3719187854963137	0.4768772271278662	0.2364422928064531
0.068	0.0012064775233551	0.2850170136948824	0.1324365929570537	0.3783635381634215	0.4834048857964187	0.2427911977863979
0.069	0.0017650180942651	0.2949356927966104	0.1347998828850219	0.3847580374918448	0.4899091940968597	0.249167197918294
0.07	0.0048979157274377	0.3049541354483718	0.1371777876331392	0.3910982786679096	0.4963886899087541	0.2555669300645073
0.07100000000000001	0.0081947985768773	0.3150669522691802	0.1395702235298354	0.3973802825169427	0.5028419075318482	0.2619869762736834
0.07200000000000001	0.0116581334807476	0.325268572745604	0.1419770917578993	0.4036001005883749	0.5092673778915103	0.2684238669607549
0.073	0.0152902654363378	0.3355532502056232	0.1443982783996011	0.4097538202623889	0.515663628825325	0.274874084212237
0.074	0.0190934121841904	0.3459150672238003	0.146833654563583	0.4158375698693365	0.5220291854488227	0.2813340652155838
0.075	0.023069658863868	0.3563479414578667	0.1492830765944428	0.4218475238127286	0.5283625705968494	0.2878002058105602
0.076	0.0272209527505524	0.3668456319161495	0.1517463863655397	0.4277799076861844	0.5346623053358632	0.2942688641596281
0.077	0.0315490980817273	0.3774017456539948	0.1542234116553094	0.4336310033741372	0.5409269095411164	0.3007363645335537
0.078	0.0360557509831754	0.3880097448966394	0.1567139666069212	0.4393971541258391	0.5471549025315197	0.307199001207622
0.079	0.0407424145035766	0.3986629545848877	0.1592178522706598	0.4450747695918675	0.5533448037544433	0.3136530424631892
0.08	0.0456104337669231	0.4093545703386988	0.1617348572282014	0.4506603308123476	0.5594951335122844	0.3200947346886163
0.081	0.0506609912519796	0.4200776668328983	0.164264758297292	0.4561503951460102	0.5656044137231453	0.3265203065729329
0.082	0.0558951022079804	0.4308252065778146	0.1668073213149777	0.46154160112913	0.5716711687085263	0.3329259733849587
0.083	0.0613136102155503	0.4415900490966017	0.1693623019971686	0.4668306732535257	0.5776939260019593	0.3393079413298995
0.084	0.0669171829018939	0.4523649604895209	0.1719294468717886	0.4720144266527176	0.5836712171732082	0.3456624119751561
0.085	0.0727063078191004	0.4631426233741197	0.1745084942824824	0.4770897716855718	0.5896015786633725	0.3519855867368678
0.08600000000000001	0.0786812884943125	0.4739156471886675	0.1770991754592964	0.4820537184066248	0.5954835526264691	0.3582736714189435
0.08700000000000001	0.0848422406604115	0.4846765788447811	0.1797012156523262	0.4869033809122096	0.6013156877739504	0.3645228807964924
0.088	0.091189088675657	0.4954179137135143	0.1823143353237704	0.4916359815511059	0.6070965402193385	0.3707294432357861
0.089	0.0977215621405228	0.5061321069276946	0.1849382513932397	0.4962488549883576	0.6128246743212563	0.376889605342698
